<mxfile host="app.diagrams.net" modified="2022-09-20T16:47:01.605Z" agent="5.0 (Windows NT 10.0; Win64; x64) AppleWebKit/537.36 (KHTML, like Gecko) Chrome/105.0.0.0 Safari/537.36" etag="v_EoU6lV2m_zYTQVSmI_" version="20.3.3" type="github">
  <diagram id="46wjDDwf2AgktlBZJVdT" name="Página-1">
    <mxGraphModel dx="981" dy="526" grid="1" gridSize="10" guides="1" tooltips="1" connect="1" arrows="1" fold="1" page="1" pageScale="1" pageWidth="827" pageHeight="1169" math="0" shadow="0">
      <root>
        <mxCell id="0" />
        <mxCell id="1" parent="0" />
        <mxCell id="67WwjvksvOG4F8crm5_F-1" value="&lt;font style=&quot;font-size: 20px;&quot;&gt;iniciar&amp;nbsp;&lt;/font&gt;" style="rounded=1;whiteSpace=wrap;html=1;" parent="1" vertex="1">
          <mxGeometry x="354" y="30" width="120" height="60" as="geometry" />
        </mxCell>
        <mxCell id="67WwjvksvOG4F8crm5_F-2" value="" style="endArrow=classic;html=1;rounded=0;fontSize=20;exitX=0.5;exitY=1;exitDx=0;exitDy=0;" parent="1" source="67WwjvksvOG4F8crm5_F-1" edge="1">
          <mxGeometry width="50" height="50" relative="1" as="geometry">
            <mxPoint x="394" y="80" as="sourcePoint" />
            <mxPoint x="414" y="130" as="targetPoint" />
          </mxGeometry>
        </mxCell>
        <mxCell id="67WwjvksvOG4F8crm5_F-28" style="edgeStyle=orthogonalEdgeStyle;rounded=0;orthogonalLoop=1;jettySize=auto;html=1;exitX=0.5;exitY=1;exitDx=0;exitDy=0;entryX=0.5;entryY=0;entryDx=0;entryDy=0;" parent="1" source="67WwjvksvOG4F8crm5_F-3" target="67WwjvksvOG4F8crm5_F-26" edge="1">
          <mxGeometry relative="1" as="geometry" />
        </mxCell>
        <mxCell id="67WwjvksvOG4F8crm5_F-3" value="Introduzca un carácter" style="shape=parallelogram;perimeter=parallelogramPerimeter;whiteSpace=wrap;html=1;fixedSize=1;" parent="1" vertex="1">
          <mxGeometry x="306" y="130" width="220" height="30" as="geometry" />
        </mxCell>
        <mxCell id="67WwjvksvOG4F8crm5_F-6" value="" style="endArrow=classic;html=1;rounded=0;fontSize=20;startArrow=none;" parent="1" source="67WwjvksvOG4F8crm5_F-26" edge="1">
          <mxGeometry width="50" height="50" relative="1" as="geometry">
            <mxPoint x="412" y="160" as="sourcePoint" />
            <mxPoint x="412" y="200" as="targetPoint" />
          </mxGeometry>
        </mxCell>
        <mxCell id="67WwjvksvOG4F8crm5_F-18" value="&lt;font style=&quot;font-size: 12px;&quot;&gt;carácter_escrito== consonante&lt;/font&gt;" style="rounded=0;whiteSpace=wrap;html=1;fontSize=20;" parent="1" vertex="1">
          <mxGeometry x="474" y="290" width="170" height="40" as="geometry" />
        </mxCell>
        <mxCell id="67WwjvksvOG4F8crm5_F-19" value="" style="endArrow=classic;html=1;rounded=0;fontSize=20;entryX=0.5;entryY=0;entryDx=0;entryDy=0;exitX=0.5;exitY=1;exitDx=0;exitDy=0;" parent="1" source="67WwjvksvOG4F8crm5_F-26" target="67WwjvksvOG4F8crm5_F-18" edge="1">
          <mxGeometry width="50" height="50" relative="1" as="geometry">
            <mxPoint x="410" y="270" as="sourcePoint" />
            <mxPoint x="740" y="270" as="targetPoint" />
            <Array as="points">
              <mxPoint x="414" y="270" />
              <mxPoint x="560" y="270" />
            </Array>
          </mxGeometry>
        </mxCell>
        <mxCell id="67WwjvksvOG4F8crm5_F-26" value="Leer carácter_escrito&amp;nbsp;" style="shape=parallelogram;perimeter=parallelogramPerimeter;whiteSpace=wrap;html=1;fixedSize=1;" parent="1" vertex="1">
          <mxGeometry x="304" y="190" width="220" height="30" as="geometry" />
        </mxCell>
        <mxCell id="67WwjvksvOG4F8crm5_F-30" value="&lt;font style=&quot;font-size: 20px;&quot;&gt;si&lt;/font&gt;" style="text;html=1;align=center;verticalAlign=middle;resizable=0;points=[];autosize=1;strokeColor=none;fillColor=none;" parent="1" vertex="1">
          <mxGeometry x="450" y="240" width="40" height="40" as="geometry" />
        </mxCell>
        <mxCell id="67WwjvksvOG4F8crm5_F-34" value="Escribir (&quot; El carácter escrito es consonante &quot;)" style="shape=parallelogram;perimeter=parallelogramPerimeter;whiteSpace=wrap;html=1;fixedSize=1;" parent="1" vertex="1">
          <mxGeometry x="460" y="360" width="220" height="30" as="geometry" />
        </mxCell>
        <mxCell id="67WwjvksvOG4F8crm5_F-35" value="" style="endArrow=classic;html=1;rounded=0;fontSize=12;exitX=0.5;exitY=1;exitDx=0;exitDy=0;entryX=0.455;entryY=0.033;entryDx=0;entryDy=0;entryPerimeter=0;" parent="1" source="67WwjvksvOG4F8crm5_F-18" target="67WwjvksvOG4F8crm5_F-34" edge="1">
          <mxGeometry width="50" height="50" relative="1" as="geometry">
            <mxPoint x="390" y="310" as="sourcePoint" />
            <mxPoint x="440" y="260" as="targetPoint" />
          </mxGeometry>
        </mxCell>
        <mxCell id="lsFvyBwBm1LzHG4jjsDm-1" value="" style="endArrow=classic;html=1;rounded=0;entryX=0.467;entryY=-0.116;entryDx=0;entryDy=0;entryPerimeter=0;" edge="1" parent="1" target="lsFvyBwBm1LzHG4jjsDm-2">
          <mxGeometry width="50" height="50" relative="1" as="geometry">
            <mxPoint x="414" y="270" as="sourcePoint" />
            <mxPoint x="250" y="290" as="targetPoint" />
            <Array as="points">
              <mxPoint x="310" y="270" />
            </Array>
          </mxGeometry>
        </mxCell>
        <mxCell id="lsFvyBwBm1LzHG4jjsDm-2" value="&lt;font style=&quot;font-size: 12px;&quot;&gt;carácter_escrito== Vocal&lt;/font&gt;" style="rounded=0;whiteSpace=wrap;html=1;fontSize=20;" vertex="1" parent="1">
          <mxGeometry x="230" y="360" width="170" height="40" as="geometry" />
        </mxCell>
        <mxCell id="lsFvyBwBm1LzHG4jjsDm-3" value="&lt;b&gt;SI NO&lt;/b&gt;" style="text;html=1;align=center;verticalAlign=middle;resizable=0;points=[];autosize=1;strokeColor=none;fillColor=none;" vertex="1" parent="1">
          <mxGeometry x="290" y="245" width="60" height="30" as="geometry" />
        </mxCell>
        <mxCell id="lsFvyBwBm1LzHG4jjsDm-4" value="&lt;font style=&quot;font-size: 12px;&quot;&gt;carácter_escrito== numero&lt;/font&gt;" style="rounded=0;whiteSpace=wrap;html=1;fontSize=20;" vertex="1" parent="1">
          <mxGeometry x="120" y="450" width="170" height="40" as="geometry" />
        </mxCell>
        <mxCell id="lsFvyBwBm1LzHG4jjsDm-5" value="&lt;font style=&quot;font-size: 12px;&quot;&gt;carácter_escrito== otro&lt;/font&gt;" style="rounded=0;whiteSpace=wrap;html=1;fontSize=20;" vertex="1" parent="1">
          <mxGeometry x="120" y="540" width="170" height="40" as="geometry" />
        </mxCell>
      </root>
    </mxGraphModel>
  </diagram>
</mxfile>
